<mxfile host="app.diagrams.net" modified="2023-09-13T15:58:37.359Z" agent="Mozilla/5.0 (Windows NT 10.0; Win64; x64) AppleWebKit/537.36 (KHTML, like Gecko) Chrome/116.0.0.0 Safari/537.36 Edg/116.0.1938.76" etag="pDC2MGEHSnitRnbTRPzS" version="21.7.5" type="github">
  <diagram name="Trang-1" id="D_RBQ0y7ovg56_HU9svu">
    <mxGraphModel dx="2137" dy="759" grid="1" gridSize="10" guides="1" tooltips="1" connect="1" arrows="1" fold="1" page="1" pageScale="1" pageWidth="827" pageHeight="1169" math="0" shadow="0">
      <root>
        <mxCell id="0" />
        <mxCell id="1" parent="0" />
        <mxCell id="x9ysftuGAjxYrfnFMvlY-6" value="" style="edgeStyle=orthogonalEdgeStyle;rounded=0;orthogonalLoop=1;jettySize=auto;html=1;" edge="1" parent="1" source="x9ysftuGAjxYrfnFMvlY-1" target="x9ysftuGAjxYrfnFMvlY-5">
          <mxGeometry relative="1" as="geometry" />
        </mxCell>
        <mxCell id="x9ysftuGAjxYrfnFMvlY-8" value="" style="edgeStyle=orthogonalEdgeStyle;rounded=0;orthogonalLoop=1;jettySize=auto;html=1;" edge="1" parent="1" source="x9ysftuGAjxYrfnFMvlY-1" target="x9ysftuGAjxYrfnFMvlY-7">
          <mxGeometry relative="1" as="geometry" />
        </mxCell>
        <mxCell id="x9ysftuGAjxYrfnFMvlY-23" value="" style="edgeStyle=orthogonalEdgeStyle;rounded=0;orthogonalLoop=1;jettySize=auto;html=1;" edge="1" parent="1" source="x9ysftuGAjxYrfnFMvlY-1" target="x9ysftuGAjxYrfnFMvlY-22">
          <mxGeometry relative="1" as="geometry" />
        </mxCell>
        <mxCell id="x9ysftuGAjxYrfnFMvlY-26" value="" style="edgeStyle=orthogonalEdgeStyle;rounded=0;orthogonalLoop=1;jettySize=auto;html=1;" edge="1" parent="1" source="x9ysftuGAjxYrfnFMvlY-1" target="x9ysftuGAjxYrfnFMvlY-25">
          <mxGeometry relative="1" as="geometry" />
        </mxCell>
        <mxCell id="x9ysftuGAjxYrfnFMvlY-1" value="Đơn vị" style="rounded=0;whiteSpace=wrap;html=1;" vertex="1" parent="1">
          <mxGeometry x="120" y="260" width="120" height="60" as="geometry" />
        </mxCell>
        <mxCell id="x9ysftuGAjxYrfnFMvlY-11" value="" style="edgeStyle=orthogonalEdgeStyle;rounded=0;orthogonalLoop=1;jettySize=auto;html=1;" edge="1" parent="1" source="x9ysftuGAjxYrfnFMvlY-2" target="x9ysftuGAjxYrfnFMvlY-10">
          <mxGeometry relative="1" as="geometry" />
        </mxCell>
        <mxCell id="x9ysftuGAjxYrfnFMvlY-13" value="" style="edgeStyle=orthogonalEdgeStyle;rounded=0;orthogonalLoop=1;jettySize=auto;html=1;" edge="1" parent="1" source="x9ysftuGAjxYrfnFMvlY-2" target="x9ysftuGAjxYrfnFMvlY-12">
          <mxGeometry relative="1" as="geometry" />
        </mxCell>
        <mxCell id="x9ysftuGAjxYrfnFMvlY-2" value="Dự án" style="rounded=0;whiteSpace=wrap;html=1;" vertex="1" parent="1">
          <mxGeometry x="570" y="260" width="120" height="60" as="geometry" />
        </mxCell>
        <mxCell id="x9ysftuGAjxYrfnFMvlY-3" value="Con" style="rounded=0;whiteSpace=wrap;html=1;" vertex="1" parent="1">
          <mxGeometry x="540" y="540" width="120" height="60" as="geometry" />
        </mxCell>
        <mxCell id="x9ysftuGAjxYrfnFMvlY-15" value="" style="edgeStyle=orthogonalEdgeStyle;rounded=0;orthogonalLoop=1;jettySize=auto;html=1;" edge="1" parent="1" source="x9ysftuGAjxYrfnFMvlY-4" target="x9ysftuGAjxYrfnFMvlY-14">
          <mxGeometry relative="1" as="geometry" />
        </mxCell>
        <mxCell id="x9ysftuGAjxYrfnFMvlY-29" value="" style="edgeStyle=orthogonalEdgeStyle;rounded=0;orthogonalLoop=1;jettySize=auto;html=1;entryX=0.5;entryY=0;entryDx=0;entryDy=0;" edge="1" parent="1" source="x9ysftuGAjxYrfnFMvlY-4" target="x9ysftuGAjxYrfnFMvlY-28">
          <mxGeometry relative="1" as="geometry" />
        </mxCell>
        <mxCell id="x9ysftuGAjxYrfnFMvlY-46" value="" style="edgeStyle=orthogonalEdgeStyle;rounded=0;orthogonalLoop=1;jettySize=auto;html=1;" edge="1" parent="1" source="x9ysftuGAjxYrfnFMvlY-4" target="x9ysftuGAjxYrfnFMvlY-45">
          <mxGeometry relative="1" as="geometry" />
        </mxCell>
        <mxCell id="x9ysftuGAjxYrfnFMvlY-4" value="Nhân viên" style="rounded=0;whiteSpace=wrap;html=1;" vertex="1" parent="1">
          <mxGeometry x="120" y="530" width="120" height="60" as="geometry" />
        </mxCell>
        <mxCell id="x9ysftuGAjxYrfnFMvlY-5" value="Địa diểm" style="ellipse;whiteSpace=wrap;html=1;rounded=0;" vertex="1" parent="1">
          <mxGeometry x="140" y="110" width="80" height="80" as="geometry" />
        </mxCell>
        <mxCell id="x9ysftuGAjxYrfnFMvlY-7" value="&lt;u&gt;Mã ĐV&lt;/u&gt;" style="ellipse;whiteSpace=wrap;html=1;rounded=0;" vertex="1" parent="1">
          <mxGeometry x="-60" y="250" width="80" height="80" as="geometry" />
        </mxCell>
        <mxCell id="x9ysftuGAjxYrfnFMvlY-10" value="Tên" style="ellipse;whiteSpace=wrap;html=1;rounded=0;" vertex="1" parent="1">
          <mxGeometry x="590" y="120" width="80" height="80" as="geometry" />
        </mxCell>
        <mxCell id="x9ysftuGAjxYrfnFMvlY-12" value="Mã" style="ellipse;whiteSpace=wrap;html=1;rounded=0;" vertex="1" parent="1">
          <mxGeometry x="800" y="250" width="80" height="80" as="geometry" />
        </mxCell>
        <mxCell id="x9ysftuGAjxYrfnFMvlY-14" value="Mã số" style="ellipse;whiteSpace=wrap;html=1;rounded=0;" vertex="1" parent="1">
          <mxGeometry x="210" y="640" width="80" height="80" as="geometry" />
        </mxCell>
        <mxCell id="x9ysftuGAjxYrfnFMvlY-16" value="" style="endArrow=classic;html=1;rounded=0;exitX=0.25;exitY=1;exitDx=0;exitDy=0;" edge="1" parent="1" source="x9ysftuGAjxYrfnFMvlY-4">
          <mxGeometry width="50" height="50" relative="1" as="geometry">
            <mxPoint x="390" y="420" as="sourcePoint" />
            <mxPoint x="80" y="640" as="targetPoint" />
          </mxGeometry>
        </mxCell>
        <mxCell id="x9ysftuGAjxYrfnFMvlY-17" value="Tên" style="ellipse;whiteSpace=wrap;html=1;rounded=0;" vertex="1" parent="1">
          <mxGeometry x="20" y="630" width="80" height="80" as="geometry" />
        </mxCell>
        <mxCell id="x9ysftuGAjxYrfnFMvlY-24" value="" style="edgeStyle=orthogonalEdgeStyle;rounded=0;orthogonalLoop=1;jettySize=auto;html=1;" edge="1" parent="1" source="x9ysftuGAjxYrfnFMvlY-22" target="x9ysftuGAjxYrfnFMvlY-4">
          <mxGeometry relative="1" as="geometry" />
        </mxCell>
        <mxCell id="x9ysftuGAjxYrfnFMvlY-22" value="Quản lý" style="rhombus;whiteSpace=wrap;html=1;rounded=0;" vertex="1" parent="1">
          <mxGeometry x="210" y="390" width="80" height="80" as="geometry" />
        </mxCell>
        <mxCell id="x9ysftuGAjxYrfnFMvlY-27" value="" style="edgeStyle=orthogonalEdgeStyle;rounded=0;orthogonalLoop=1;jettySize=auto;html=1;" edge="1" parent="1" source="x9ysftuGAjxYrfnFMvlY-25" target="x9ysftuGAjxYrfnFMvlY-2">
          <mxGeometry relative="1" as="geometry" />
        </mxCell>
        <mxCell id="x9ysftuGAjxYrfnFMvlY-25" value="Kiểm soát" style="rhombus;whiteSpace=wrap;html=1;rounded=0;" vertex="1" parent="1">
          <mxGeometry x="390" y="250" width="80" height="80" as="geometry" />
        </mxCell>
        <mxCell id="x9ysftuGAjxYrfnFMvlY-28" value="Quản lý" style="rhombus;whiteSpace=wrap;html=1;rounded=0;" vertex="1" parent="1">
          <mxGeometry x="-60" y="520" width="80" height="80" as="geometry" />
        </mxCell>
        <mxCell id="x9ysftuGAjxYrfnFMvlY-30" value="" style="endArrow=classic;html=1;rounded=0;exitX=0.575;exitY=0.9;exitDx=0;exitDy=0;exitPerimeter=0;entryX=0;entryY=0.75;entryDx=0;entryDy=0;" edge="1" parent="1" source="x9ysftuGAjxYrfnFMvlY-28" target="x9ysftuGAjxYrfnFMvlY-4">
          <mxGeometry width="50" height="50" relative="1" as="geometry">
            <mxPoint x="390" y="420" as="sourcePoint" />
            <mxPoint x="440" y="370" as="targetPoint" />
          </mxGeometry>
        </mxCell>
        <mxCell id="x9ysftuGAjxYrfnFMvlY-31" value="" style="endArrow=classic;html=1;rounded=0;exitX=1;exitY=0;exitDx=0;exitDy=0;" edge="1" parent="1" source="x9ysftuGAjxYrfnFMvlY-4" target="x9ysftuGAjxYrfnFMvlY-32">
          <mxGeometry width="50" height="50" relative="1" as="geometry">
            <mxPoint x="390" y="420" as="sourcePoint" />
            <mxPoint x="360" y="470" as="targetPoint" />
          </mxGeometry>
        </mxCell>
        <mxCell id="x9ysftuGAjxYrfnFMvlY-34" value="" style="edgeStyle=orthogonalEdgeStyle;rounded=0;orthogonalLoop=1;jettySize=auto;html=1;" edge="1" parent="1" source="x9ysftuGAjxYrfnFMvlY-32" target="x9ysftuGAjxYrfnFMvlY-33">
          <mxGeometry relative="1" as="geometry" />
        </mxCell>
        <mxCell id="x9ysftuGAjxYrfnFMvlY-37" value="" style="edgeStyle=orthogonalEdgeStyle;rounded=0;orthogonalLoop=1;jettySize=auto;html=1;" edge="1" parent="1" source="x9ysftuGAjxYrfnFMvlY-32" target="x9ysftuGAjxYrfnFMvlY-36">
          <mxGeometry relative="1" as="geometry">
            <Array as="points">
              <mxPoint x="450" y="440" />
              <mxPoint x="450" y="410" />
              <mxPoint x="440" y="410" />
              <mxPoint x="440" y="390" />
            </Array>
          </mxGeometry>
        </mxCell>
        <mxCell id="x9ysftuGAjxYrfnFMvlY-32" value="Tham gia" style="rhombus;whiteSpace=wrap;html=1;" vertex="1" parent="1">
          <mxGeometry x="350" y="430" width="80" height="80" as="geometry" />
        </mxCell>
        <mxCell id="x9ysftuGAjxYrfnFMvlY-33" value="" style="shape=waypoint;sketch=0;size=6;pointerEvents=1;points=[];fillColor=default;resizable=0;rotatable=0;perimeter=centerPerimeter;snapToPoint=1;" vertex="1" parent="1">
          <mxGeometry x="580" y="320" width="20" height="20" as="geometry" />
        </mxCell>
        <mxCell id="x9ysftuGAjxYrfnFMvlY-36" value="Số giờ" style="ellipse;whiteSpace=wrap;html=1;" vertex="1" parent="1">
          <mxGeometry x="460" y="350" width="80" height="80" as="geometry" />
        </mxCell>
        <mxCell id="x9ysftuGAjxYrfnFMvlY-40" value="" style="endArrow=classic;html=1;rounded=0;exitX=0.167;exitY=0;exitDx=0;exitDy=0;exitPerimeter=0;entryX=0.638;entryY=0.913;entryDx=0;entryDy=0;entryPerimeter=0;" edge="1" parent="1" source="x9ysftuGAjxYrfnFMvlY-4" target="x9ysftuGAjxYrfnFMvlY-41">
          <mxGeometry width="50" height="50" relative="1" as="geometry">
            <mxPoint x="390" y="420" as="sourcePoint" />
            <mxPoint x="90" y="430" as="targetPoint" />
          </mxGeometry>
        </mxCell>
        <mxCell id="x9ysftuGAjxYrfnFMvlY-41" value="Làm việc&amp;nbsp;" style="rhombus;whiteSpace=wrap;html=1;rounded=0;" vertex="1" parent="1">
          <mxGeometry x="50" y="380" width="80" height="80" as="geometry" />
        </mxCell>
        <mxCell id="x9ysftuGAjxYrfnFMvlY-44" value="" style="endArrow=classic;html=1;rounded=0;entryX=0.167;entryY=1.1;entryDx=0;entryDy=0;entryPerimeter=0;" edge="1" parent="1" source="x9ysftuGAjxYrfnFMvlY-41" target="x9ysftuGAjxYrfnFMvlY-1">
          <mxGeometry width="50" height="50" relative="1" as="geometry">
            <mxPoint x="150" y="540" as="sourcePoint" />
            <mxPoint x="111" y="463" as="targetPoint" />
          </mxGeometry>
        </mxCell>
        <mxCell id="x9ysftuGAjxYrfnFMvlY-48" value="" style="edgeStyle=orthogonalEdgeStyle;rounded=0;orthogonalLoop=1;jettySize=auto;html=1;" edge="1" parent="1" source="x9ysftuGAjxYrfnFMvlY-45" target="x9ysftuGAjxYrfnFMvlY-47">
          <mxGeometry relative="1" as="geometry" />
        </mxCell>
        <mxCell id="x9ysftuGAjxYrfnFMvlY-45" value="Có" style="rhombus;whiteSpace=wrap;html=1;rounded=0;" vertex="1" parent="1">
          <mxGeometry x="340" y="520" width="80" height="80" as="geometry" />
        </mxCell>
        <mxCell id="x9ysftuGAjxYrfnFMvlY-47" value="" style="shape=waypoint;sketch=0;size=6;pointerEvents=1;points=[];fillColor=default;resizable=0;rotatable=0;perimeter=centerPerimeter;snapToPoint=1;rounded=0;" vertex="1" parent="1">
          <mxGeometry x="530" y="550" width="20" height="20" as="geometry" />
        </mxCell>
      </root>
    </mxGraphModel>
  </diagram>
</mxfile>
